<svg xmlns="http://www.w3.org/2000/svg" version="1.1" viewBox="264.5 72.5 517 446">
   <line x1="658" y1="123" x2="648" y2="123" style="stroke:#cb0;stroke-width:1;"/>
   <line x1="430" y1="117" x2="420" y2="117" style="stroke:#cb0;stroke-width:1;"/>
   <line x1="648" y1="123" x2="430" y2="117" style="stroke:#cb0;stroke-width:1;"/>
   <line x1="650.5" y1="123" x2="654.03553390593" y2="126.53553390593" style="stroke:#cb0;stroke-width:2;"/>
   <line x1="650.5" y1="123" x2="654.03553390593" y2="119.46446609407" style="stroke:#cb0;stroke-width:2;"/>
   <line x1="425" y1="117" x2="428.53553390593" y2="120.53553390593" style="stroke:#cb0;stroke-width:2;"/>
   <line x1="425" y1="117" x2="428.53553390593" y2="113.46446609407" style="stroke:#cb0;stroke-width:2;"/>
   <line x1="658" y1="143" x2="648" y2="143" style="stroke:#b0b;stroke-width:1;"/>
   <line x1="653" y1="288" x2="663" y2="288" style="stroke:#b0b;stroke-width:1;"/>
   <line x1="648" y1="143" x2="653" y2="288" style="stroke:#b0b;stroke-width:1;"/>
   <line x1="650.5" y1="143" x2="654.03553390593" y2="146.53553390593" style="stroke:#b0b;stroke-width:2;"/>
   <line x1="650.5" y1="143" x2="654.03553390593" y2="139.46446609407" style="stroke:#b0b;stroke-width:2;"/>
   <line x1="658" y1="288" x2="654.46446609407" y2="291.53553390593" style="stroke:#b0b;stroke-width:2;"/>
   <line x1="658" y1="288" x2="654.46446609407" y2="284.46446609407" style="stroke:#b0b;stroke-width:2;"/>
   <line x1="275" y1="360" x2="265" y2="360" style="stroke:#c00;stroke-width:1;"/>
   <line x1="266" y1="117" x2="276" y2="117" style="stroke:#c00;stroke-width:1;"/>
   <line x1="265" y1="360" x2="266" y2="117" style="stroke:#c00;stroke-width:1;"/>
   <line x1="267.5" y1="360" x2="271.03553390593" y2="363.53553390593" style="stroke:#c00;stroke-width:2;"/>
   <line x1="267.5" y1="360" x2="271.03553390593" y2="356.46446609407" style="stroke:#c00;stroke-width:2;"/>
   <line x1="271" y1="117" x2="267.46446609407" y2="120.53553390593" style="stroke:#c00;stroke-width:2;"/>
   <line x1="271" y1="117" x2="267.46446609407" y2="113.46446609407" style="stroke:#c00;stroke-width:2;"/>
   <line x1="398" y1="340" x2="408" y2="340" style="stroke:#c00;stroke-width:1;"/>
   <line x1="653" y1="288" x2="663" y2="288" style="stroke:#c00;stroke-width:1;"/>
   <line x1="408" y1="340" x2="653" y2="288" style="stroke:#c00;stroke-width:1;"/>
   <line x1="405.5" y1="340" x2="401.96446609407" y2="343.53553390593" style="stroke:#c00;stroke-width:2;"/>
   <line x1="405.5" y1="340" x2="401.96446609407" y2="336.46446609407" style="stroke:#c00;stroke-width:2;"/>
   <line x1="658" y1="288" x2="654.46446609407" y2="291.53553390593" style="stroke:#c00;stroke-width:2;"/>
   <line x1="658" y1="288" x2="654.46446609407" y2="284.46446609407" style="stroke:#c00;stroke-width:2;"/>
   <rect width="123" height="20" x="658" y="73" style="fill:#007;stroke:black;"/>
   <text width="123" height="20" x="663" y="87" style="fill:#fff;" font-family="Arial" font-size="16px"> cart</text>
   <rect width="123" height="20" x="658" y="93" style="fill:#aea;stroke:black;"/>
   <text width="123" height="20" x="663" y="107" style="fill:black;" font-family="Arial" font-size="16px">cartID</text>
   <rect width="123" height="20" x="658" y="113" style="fill:none;stroke:black;"/>
   <text width="123" height="20" x="663" y="127" style="fill:black;" font-family="Arial" font-size="16px">productID</text>
   <rect width="123" height="20" x="658" y="133" style="fill:none;stroke:black;"/>
   <text width="123" height="20" x="663" y="147" style="fill:black;" font-family="Arial" font-size="16px">userID</text>
   <rect width="123" height="20" x="658" y="153" style="fill:none;stroke:black;"/>
   <text width="123" height="20" x="663" y="167" style="fill:black;" font-family="Arial" font-size="16px">productQuantity</text>
   <rect width="123" height="20" x="275" y="290" style="fill:#007;stroke:black;"/>
   <text width="123" height="20" x="280" y="304" style="fill:#fff;" font-family="Arial" font-size="16px"> orders</text>
   <rect width="123" height="20" x="275" y="310" style="fill:#aea;stroke:black;"/>
   <text width="123" height="20" x="280" y="324" style="fill:black;" font-family="Arial" font-size="16px">orderID</text>
   <rect width="123" height="20" x="275" y="330" style="fill:none;stroke:black;"/>
   <text width="123" height="20" x="280" y="344" style="fill:black;" font-family="Arial" font-size="16px">userID</text>
   <rect width="123" height="20" x="275" y="350" style="fill:none;stroke:black;"/>
   <text width="123" height="20" x="280" y="364" style="fill:black;" font-family="Arial" font-size="16px">productID</text>
   <rect width="123" height="20" x="275" y="370" style="fill:none;stroke:black;"/>
   <text width="123" height="20" x="280" y="384" style="fill:black;" font-family="Arial" font-size="16px">productQuantity</text>
   <rect width="123" height="20" x="275" y="390" style="fill:none;stroke:black;"/>
   <text width="123" height="20" x="280" y="404" style="fill:black;" font-family="Arial" font-size="16px">orderDate</text>
   <rect width="123" height="20" x="275" y="410" style="fill:none;stroke:black;"/>
   <text width="123" height="20" x="280" y="424" style="fill:black;" font-family="Arial" font-size="16px">orderStatus</text>
   <rect width="144" height="20" x="276" y="87" style="fill:#007;stroke:black;"/>
   <text width="144" height="20" x="281" y="101" style="fill:#fff;" font-family="Arial" font-size="16px"> products</text>
   <rect width="144" height="20" x="276" y="107" style="fill:#aea;stroke:black;"/>
   <text width="144" height="20" x="281" y="121" style="fill:black;" font-family="Arial" font-size="16px">productID</text>
   <rect width="144" height="20" x="276" y="127" style="fill:none;stroke:black;"/>
   <text width="144" height="20" x="281" y="141" style="fill:black;" font-family="Arial" font-size="16px">productName</text>
   <rect width="144" height="20" x="276" y="147" style="fill:none;stroke:black;"/>
   <text width="144" height="20" x="281" y="161" style="fill:black;" font-family="Arial" font-size="16px">productDescription</text>
   <rect width="144" height="20" x="276" y="167" style="fill:none;stroke:black;"/>
   <text width="144" height="20" x="281" y="181" style="fill:black;" font-family="Arial" font-size="16px">productPrice</text>
   <rect width="144" height="20" x="276" y="187" style="fill:none;stroke:black;"/>
   <text width="144" height="20" x="281" y="201" style="fill:black;" font-family="Arial" font-size="16px">productImage</text>
   <rect width="80" height="20" x="663" y="258" style="fill:#007;stroke:black;"/>
   <text width="80" height="20" x="668" y="272" style="fill:#fff;" font-family="Arial" font-size="16px"> users</text>
   <rect width="80" height="20" x="663" y="278" style="fill:#aea;stroke:black;"/>
   <text width="80" height="20" x="668" y="292" style="fill:black;" font-family="Arial" font-size="16px">userID</text>
   <rect width="80" height="20" x="663" y="298" style="fill:none;stroke:black;"/>
   <text width="80" height="20" x="668" y="312" style="fill:black;" font-family="Arial" font-size="16px">lastName</text>
   <rect width="80" height="20" x="663" y="318" style="fill:none;stroke:black;"/>
   <text width="80" height="20" x="668" y="332" style="fill:black;" font-family="Arial" font-size="16px">firstName</text>
   <rect width="80" height="20" x="663" y="338" style="fill:none;stroke:black;"/>
   <text width="80" height="20" x="668" y="352" style="fill:black;" font-family="Arial" font-size="16px">email</text>
   <rect width="80" height="20" x="663" y="358" style="fill:none;stroke:black;"/>
   <text width="80" height="20" x="668" y="372" style="fill:black;" font-family="Arial" font-size="16px">phone</text>
   <rect width="80" height="20" x="663" y="378" style="fill:none;stroke:black;"/>
   <text width="80" height="20" x="668" y="392" style="fill:black;" font-family="Arial" font-size="16px">address</text>
   <rect width="80" height="20" x="663" y="398" style="fill:none;stroke:black;"/>
   <text width="80" height="20" x="668" y="412" style="fill:black;" font-family="Arial" font-size="16px">city</text>
   <rect width="80" height="20" x="663" y="418" style="fill:none;stroke:black;"/>
   <text width="80" height="20" x="668" y="432" style="fill:black;" font-family="Arial" font-size="16px">state</text>
   <rect width="80" height="20" x="663" y="438" style="fill:none;stroke:black;"/>
   <text width="80" height="20" x="668" y="452" style="fill:black;" font-family="Arial" font-size="16px">zipcode</text>
   <rect width="80" height="20" x="663" y="458" style="fill:none;stroke:black;"/>
   <text width="80" height="20" x="668" y="472" style="fill:black;" font-family="Arial" font-size="16px">isAdmin</text>
   <rect width="80" height="20" x="663" y="478" style="fill:none;stroke:black;"/>
   <text width="80" height="20" x="668" y="492" style="fill:black;" font-family="Arial" font-size="16px">visitCount</text>
   <rect width="80" height="20" x="663" y="498" style="fill:none;stroke:black;"/>
   <text width="80" height="20" x="668" y="512" style="fill:black;" font-family="Arial" font-size="16px">password</text>
</svg>